<svg width="16" height="22" viewBox="0 0 16 22" fill="none" xmlns="http://www.w3.org/2000/svg">
<path fill-rule="evenodd" clip-rule="evenodd" d="M6.872 2.4084C7.1886 2.14452 7.5878 2 8 2C8.4122 2 8.8114 2.14452 9.128 2.40841L13.6402 6.16853C13.8682 6.35852 14 6.63997 14 6.93675V19C14 19.5523 13.5523 20 13 20H3C2.44772 20 2 19.5523 2 19V6.93675C2 6.63997 2.13182 6.35852 2.35982 6.16853L6.872 2.4084ZM8 0C7.1199 0 6.2677 0.30855 5.5916 0.87196L1.07945 4.63209C0.39547 5.20207 0 6.04641 0 6.93675V19C0 20.6569 1.34315 22 3 22H13C14.6569 22 16 20.6569 16 19V6.93675C16 6.04641 15.6045 5.20207 14.9206 4.63209L10.4084 0.87196C9.7323 0.30855 8.8801 0 8 0ZM9 7C9 6.44772 8.5523 6 8 6C7.4477 6 7 6.44776 7 7C5.34315 7 4 8.34315 4 10C4 11.6569 5.34315 13 7 13H9C9.5523 13 10 13.4477 10 14C10 14.5523 9.5523 15 9 15H6C5.44772 15 5 15.4477 5 16C5 16.5523 5.44772 17 6 17H7C7 17.5523 7.4477 17.9999 8 17.9999C8.5523 17.9999 9 17.5523 9 17C10.6569 17 12 15.6569 12 14C12 12.3431 10.6569 11 9 11H7C6.4477 11 6 10.5523 6 10C6 9.4477 6.4477 9 7 9H10C10.5523 9 11 8.55228 11 8C11 7.44772 10.5523 7 10 7H9Z" fill="black"/>
</svg>
